<svg version="1.1" viewBox="0.0 0.0 960.0 720.0" fill="none" stroke="none" stroke-linecap="square" stroke-miterlimit="10" xmlns:xlink="http://www.w3.org/1999/xlink" xmlns="http://www.w3.org/2000/svg"><clipPath id="p.0"><path d="m0 0l960.0 0l0 720.0l-960.0 0l0 -720.0z" clip-rule="nonzero"/></clipPath><g clip-path="url(#p.0)"><path fill="#000000" fill-opacity="0.0" d="m0 0l960.0 0l0 720.0l-960.0 0z" fill-rule="evenodd"/><path fill="#cfe2f3" d="m300.06824 151.69292l0 0c0 -45.252563 36.68445 -81.93701 81.93701 -81.93701l0 0c21.731049 0 42.572052 8.632622 57.9382 23.998795c15.36618 15.366173 23.99881 36.20717 23.99881 57.938217l0 0c0 45.252563 -36.68445 81.93701 -81.93701 81.93701l0 0c-45.252563 0 -81.93701 -36.68445 -81.93701 -81.93701z" fill-rule="evenodd"/><path stroke="#000000" stroke-width="1.0" stroke-linejoin="round" stroke-linecap="butt" d="m300.06824 151.69292l0 0c0 -45.252563 36.68445 -81.93701 81.93701 -81.93701l0 0c21.731049 0 42.572052 8.632622 57.9382 23.998795c15.36618 15.366173 23.99881 36.20717 23.99881 57.938217l0 0c0 45.252563 -36.68445 81.93701 -81.93701 81.93701l0 0c-45.252563 0 -81.93701 -36.68445 -81.93701 -81.93701z" fill-rule="evenodd"/><path fill="#cfe2f3" d="m463.94226 151.69292l0 0c0 -45.252563 36.68445 -81.93701 81.93701 -81.93701l0 0c21.731018 0 42.57202 8.632622 57.938232 23.998795c15.36615 15.366173 23.99878 36.20717 23.99878 57.938217l0 0c0 45.252563 -36.68445 81.93701 -81.93701 81.93701l0 0c-45.252563 0 -81.93701 -36.68445 -81.93701 -81.93701z" fill-rule="evenodd"/><path stroke="#000000" stroke-width="1.0" stroke-linejoin="round" stroke-linecap="butt" d="m463.94226 151.69292l0 0c0 -45.252563 36.68445 -81.93701 81.93701 -81.93701l0 0c21.731018 0 42.57202 8.632622 57.938232 23.998795c15.36615 15.366173 23.99878 36.20717 23.99878 57.938217l0 0c0 45.252563 -36.68445 81.93701 -81.93701 81.93701l0 0c-45.252563 0 -81.93701 -36.68445 -81.93701 -81.93701z" fill-rule="evenodd"/><path fill="#cfe2f3" d="m383.4777 296.0971l0 0c0 -45.25255 36.68445 -81.937 81.93701 -81.937l0 0c21.731049 0 42.572052 8.632614 57.9382 23.998795c15.36615 15.366165 23.99878 36.207153 23.99878 57.9382l0 0c0 45.252563 -36.684418 81.93701 -81.93698 81.93701l0 0c-45.252563 0 -81.93701 -36.68445 -81.93701 -81.93701z" fill-rule="evenodd"/><path stroke="#000000" stroke-width="1.0" stroke-linejoin="round" stroke-linecap="butt" d="m383.4777 296.0971l0 0c0 -45.25255 36.68445 -81.937 81.93701 -81.937l0 0c21.731049 0 42.572052 8.632614 57.9382 23.998795c15.36615 15.366165 23.99878 36.207153 23.99878 57.9382l0 0c0 45.252563 -36.684418 81.93701 -81.93698 81.93701l0 0c-45.252563 0 -81.93701 -36.68445 -81.93701 -81.93701z" fill-rule="evenodd"/><path fill="#cfe2f3" d="m300.06824 441.937l0 0c0 -45.252563 36.68445 -81.93701 81.93701 -81.93701l0 0c21.731049 0 42.572052 8.632629 57.9382 23.99878c15.36618 15.36618 23.99881 36.207184 23.99881 57.938232l0 0c0 45.252563 -36.68445 81.93701 -81.93701 81.93701l0 0c-45.252563 0 -81.93701 -36.68445 -81.93701 -81.93701z" fill-rule="evenodd"/><path stroke="#000000" stroke-width="1.0" stroke-linejoin="round" stroke-linecap="butt" d="m300.06824 441.937l0 0c0 -45.252563 36.68445 -81.93701 81.93701 -81.93701l0 0c21.731049 0 42.572052 8.632629 57.9382 23.99878c15.36618 15.36618 23.99881 36.207184 23.99881 57.938232l0 0c0 45.252563 -36.68445 81.93701 -81.93701 81.93701l0 0c-45.252563 0 -81.93701 -36.68445 -81.93701 -81.93701z" fill-rule="evenodd"/><path fill="#cfe2f3" d="m463.94226 441.937l0 0c0 -45.252563 36.68445 -81.93701 81.93701 -81.93701l0 0c21.731018 0 42.57202 8.632629 57.938232 23.99878c15.36615 15.36618 23.99878 36.207184 23.99878 57.938232l0 0c0 45.252563 -36.68445 81.93701 -81.93701 81.93701l0 0c-45.252563 0 -81.93701 -36.68445 -81.93701 -81.93701z" fill-rule="evenodd"/><path stroke="#000000" stroke-width="1.0" stroke-linejoin="round" stroke-linecap="butt" d="m463.94226 441.937l0 0c0 -45.252563 36.68445 -81.93701 81.93701 -81.93701l0 0c21.731018 0 42.57202 8.632629 57.938232 23.99878c15.36615 15.36618 23.99878 36.207184 23.99878 57.938232l0 0c0 45.252563 -36.68445 81.93701 -81.93701 81.93701l0 0c-45.252563 0 -81.93701 -36.68445 -81.93701 -81.93701z" fill-rule="evenodd"/></g></svg>